<svg width="36" height="36" viewBox="0 0 36 36" fill="none" xmlns="http://www.w3.org/2000/svg">
<circle cx="18" cy="18" r="18" fill="#1E1F20"/>
<path d="M24.4561 21.4689C24.2142 22.0279 23.9278 22.5424 23.5959 23.0155C23.1436 23.6604 22.7732 24.1068 22.4878 24.3547C22.0454 24.7616 21.5713 24.97 21.0637 24.9818C20.6992 24.9818 20.2597 24.8781 19.7481 24.6678C19.2349 24.4584 18.7632 24.3547 18.3319 24.3547C17.8796 24.3547 17.3944 24.4584 16.8755 24.6678C16.3558 24.8782 15.9372 24.9878 15.6171 24.9986C15.1303 25.0194 14.6451 24.8051 14.1608 24.3547C13.8516 24.0851 13.465 23.6229 13.0018 22.9681C12.5048 22.2688 12.0962 21.458 11.7761 20.5336C11.4333 19.5351 11.2615 18.5682 11.2615 17.6322C11.2615 16.5599 11.4932 15.6351 11.9573 14.8601C12.322 14.2376 12.8072 13.7465 13.4145 13.3861C14.0218 13.0256 14.678 12.8419 15.3846 12.8301C15.7713 12.8301 16.2783 12.9497 16.9084 13.1848C17.5367 13.4206 17.9402 13.5402 18.1171 13.5402C18.2493 13.5402 18.6975 13.4004 19.4573 13.1216C20.1758 12.863 20.7822 12.7559 21.279 12.7981C22.6251 12.9068 23.6364 13.4374 24.309 14.3934C23.1051 15.1229 22.5095 16.1446 22.5214 17.4553C22.5322 18.4762 22.9026 19.3257 23.6305 20.0003C23.9603 20.3134 24.3287 20.5553 24.7386 20.7272C24.6497 20.9849 24.5559 21.2318 24.4561 21.4689ZM21.3688 9.3201C21.3688 10.1203 21.0765 10.8674 20.4938 11.5589C19.7906 12.381 18.9401 12.8561 18.0177 12.7811C18.0054 12.6805 17.9992 12.5793 17.9991 12.4779C17.9991 11.7098 18.3336 10.8876 18.9274 10.2155C19.2239 9.87514 19.601 9.59216 20.0582 9.36642C20.5145 9.14404 20.9461 9.02106 21.352 9C21.3639 9.10697 21.3688 9.21396 21.3688 9.3201Z" fill="white"/>
</svg>
