<svg width="36" height="36" viewBox="0 0 36 36" fill="none" xmlns="http://www.w3.org/2000/svg">
<circle cx="18" cy="18" r="18" fill="white"/>
<g clip-path="url(#clip0_146_236)">
<path d="M18 31C25.732 31 32 24.732 32 17C32 9.26801 25.732 3 18 3C10.268 3 4 9.26801 4 17C4 24.732 10.268 31 18 31Z" fill="white"/>
<path d="M15.4333 23.4168C14.9797 23.4168 15.0568 23.2456 14.9004 22.8137L13.5667 18.4243L23.8333 12.3335" fill="#2C2C2D"/>
<path d="M15.4333 23.4168C15.7833 23.4168 15.9379 23.2568 16.1333 23.0668L18 21.2517L15.6716 19.8477" fill="#3F4040"/>
<path d="M15.6714 19.8477L21.3134 24.0161C21.9573 24.3714 22.4219 24.1874 22.5823 23.4184L24.8789 12.5961C25.114 11.6534 24.5195 11.2257 23.9035 11.5054L10.418 16.7053C9.49755 17.0746 9.50303 17.5881 10.2503 17.8169L13.711 18.8971L21.7228 13.8426C22.101 13.6132 22.4482 13.7364 22.1633 13.9893" fill="#1E1F20"/>
</g>
<defs>
<clipPath id="clip0_146_236">
<rect width="36" height="24" fill="white" transform="translate(0 6)"/>
</clipPath>
</defs>
</svg>
