<svg width="36" height="36" viewBox="0 0 36 36" fill="none" xmlns="http://www.w3.org/2000/svg">
<circle cx="18" cy="18" r="18" fill="#1E1F20"/>
<path d="M23.2322 17.0923C20.6535 15.5608 16.3999 15.42 13.9382 16.1672C13.5428 16.2871 13.1248 16.064 13.0051 15.6686C12.8853 15.2731 13.1082 14.8553 13.5037 14.7352C16.3297 13.8774 21.0273 14.043 23.996 15.8053C24.3517 16.0164 24.4682 16.4756 24.2574 16.8306C24.0465 17.1861 23.5869 17.3034 23.2322 17.0923M23.1478 19.3605C22.9669 19.6541 22.583 19.7462 22.2898 19.5659C20.14 18.2444 16.8616 17.8616 14.3182 18.6336C13.9884 18.7332 13.6399 18.5474 13.5398 18.2181C13.492 18.0598 13.509 17.889 13.587 17.7432C13.6649 17.5974 13.7975 17.4885 13.9557 17.4403C16.8612 16.5585 20.4733 16.9855 22.9426 18.503C23.2357 18.6836 23.328 19.0676 23.1478 19.3605ZM22.1688 21.5389C22.1348 21.5948 22.09 21.6435 22.0371 21.6822C21.9842 21.7208 21.9242 21.7486 21.8605 21.764C21.7968 21.7794 21.7307 21.7821 21.666 21.772C21.6012 21.7618 21.5391 21.739 21.4833 21.7048C19.6047 20.5566 17.2401 20.2973 14.4554 20.9334C14.3916 20.948 14.3255 20.9499 14.261 20.939C14.1964 20.928 14.1347 20.9045 14.0793 20.8697C14.0238 20.8348 13.9758 20.7895 13.9379 20.7361C13.9 20.6827 13.873 20.6224 13.8585 20.5586C13.8438 20.4947 13.8419 20.4287 13.8528 20.3641C13.8637 20.2995 13.8872 20.2377 13.9221 20.1822C13.9569 20.1268 14.0023 20.0787 14.0557 20.0408C14.1092 20.003 14.1695 19.976 14.2334 19.9615C17.2808 19.2649 19.8948 19.5647 22.0034 20.8532C22.0593 20.8873 22.1079 20.9322 22.1465 20.9851C22.1851 21.038 22.2128 21.0981 22.2282 21.1617C22.2436 21.2254 22.2463 21.2915 22.2361 21.3562C22.2259 21.4209 22.203 21.483 22.1688 21.5389ZM18.4999 10.0001C14.0818 10.0001 10.5 13.5818 10.5 18C10.5 22.4186 14.0818 26.0001 18.4999 26.0001C22.9183 26.0001 26.5 22.4186 26.5 18C26.5 13.5818 22.9183 10.0001 18.4999 10.0001Z" fill="white"/>
</svg>
