<svg width="36" height="36" viewBox="0 0 36 36" fill="none" xmlns="http://www.w3.org/2000/svg">
<circle cx="18" cy="18" r="18" fill="#1E1F20"/>
<path d="M17.5002 25.9675C13.3143 25.9675 9.92061 22.6223 9.92061 18.4966C9.92061 14.3706 13.3143 11.0254 17.5002 11.0254V10.8333C11.887 10.8333 7.99338 13.277 6.33356 14.6351C4.50233 16.1331 3.33465 20.0185 6.62811 22.5938C6.62811 22.5938 10.9017 26.1667 17.5002 26.1667V25.9675Z" fill="white"/>
<path d="M17.5002 25.9675C21.6861 25.9675 25.0793 22.6223 25.0793 18.4966C25.0793 14.3706 21.6861 11.0254 17.5002 11.0254V10.8333C23.1134 10.8333 27.0066 13.277 28.6668 14.6351C30.4976 16.1331 31.6653 20.0185 28.3718 22.5938C28.3718 22.5938 24.0986 26.1667 17.5002 26.1667V25.9675Z" fill="white"/>
<path d="M10.7004 16.1602H14.4048V17.1554H13.8809V16.6336H12.5386V17.9204H13.0377V17.4833H13.5854V18.8554H13.0376V18.4785H12.5262V19.8751H13.8809V19.2797H14.4048V20.3361H10.7004V19.8751H11.1714V16.6335H10.7004V16.1602ZM14.7559 17.4716H16.332V19.8872H16.6524V20.3606H14.7434V19.8872H15.1252V17.9204H14.7559V17.4714M15.6915 16.1358C16.0981 16.1358 16.3196 16.4754 16.3196 16.7183C16.3196 16.9616 16.1101 17.3013 15.7406 17.3013C15.371 17.3013 15.1497 16.9978 15.1497 16.6943C15.1497 16.3903 15.396 16.1358 15.6915 16.1358ZM18.8448 17.4588H19.2753V18.3453H18.869C18.7276 18.0297 18.4628 17.9449 18.3273 17.9082C18.1882 17.8705 18.0318 17.8657 17.9022 17.9263C17.7731 17.9871 17.859 18.1994 17.9887 18.2602C18.1178 18.3208 18.8874 18.7155 19.0291 18.8187C19.1709 18.9219 19.5281 19.4437 19.2446 19.9112C18.8985 20.4825 18.5304 20.424 18.3149 20.4336C18.0378 20.4457 17.5346 20.2491 17.4221 20.1301C17.4285 20.2268 17.4221 20.3606 17.4221 20.3606H16.923V19.4863H17.3853C17.4037 19.6136 17.6945 19.9126 18.0071 19.9474C18.3333 19.9842 18.4257 19.7174 18.1366 19.5534C17.8466 19.3894 17.4836 19.2495 17.2557 19.0977C17.0277 18.9459 16.5724 18.406 17.0093 17.7746C17.4469 17.1432 18.6596 17.4951 18.8448 17.6958V17.4588ZM22.0527 19.9292V18.157C22.0467 17.9387 21.7756 17.5745 21.3446 17.4952C20.9137 17.4165 20.2853 17.6592 20.2853 17.6592L20.1439 17.7276V17.4776H19.6756V18.3513H20.0823C20.1067 18.224 20.4518 17.9931 20.612 17.9994C20.772 18.0053 20.9011 18.0537 20.9071 18.2055C20.9135 18.3572 20.9135 18.4972 20.9135 18.4972C20.8579 18.4972 20.8088 18.4913 20.8088 18.4913C20.7105 18.3876 20.0602 18.2649 19.7744 18.6431C19.5221 18.9765 19.4131 19.1908 19.5098 19.7048C19.5975 20.1755 20.1075 20.4215 20.3161 20.4337C20.6424 20.4517 20.8579 20.3122 20.8579 20.3122C20.9135 20.3362 20.9319 20.3974 21.0427 20.3974H22.3913V19.9295L22.0527 19.9292ZM20.772 19.9171C20.5934 19.9171 20.5501 19.5651 20.5501 19.4076C20.5501 19.2495 20.6549 18.9523 20.7844 18.9523C20.9444 18.9523 20.9194 19.3042 20.9194 19.4013C20.9194 19.4986 20.9502 19.9171 20.772 19.9171ZM22.5518 17.4653V17.9263H22.9088V19.9267H22.5518V20.3787H24.4358V19.9265H24.0604V17.4653H22.5518ZM23.4446 16.1965C23.9 16.1965 24.042 16.6033 24.042 16.7732C24.042 16.9429 23.9064 17.3498 23.4447 17.3498C22.9829 17.3498 22.8656 16.9366 22.8656 16.7305C22.8716 16.5844 22.9356 16.4464 23.044 16.3465C23.1523 16.2466 23.2962 16.1927 23.4446 16.1965Z" fill="white"/>
</svg>
