<svg width="36" height="36" viewBox="0 0 36 36" fill="none" xmlns="http://www.w3.org/2000/svg">
<circle cx="18" cy="18" r="18" fill="#1E1F20"/>
<path d="M18.5 29.9723C25.1581 29.9723 30.5556 24.5749 30.5556 17.9168C30.5556 11.2587 25.1581 5.86121 18.5 5.86121C11.8419 5.86121 6.44446 11.2587 6.44446 17.9168C6.44446 24.5749 11.8419 29.9723 18.5 29.9723Z" fill="white"/>
<path d="M16.2898 23.4424C15.8992 23.4424 15.9656 23.2949 15.8309 22.923L14.6824 19.1433L23.5231 13.8984" fill="#2C2C2D"/>
<path d="M16.2898 23.4424C16.5912 23.4424 16.7243 23.3046 16.8926 23.141L18.5 21.578L16.4949 20.3689" fill="#3F4040"/>
<path d="M16.4948 20.369L21.3532 23.9584C21.9077 24.2643 22.3077 24.1059 22.4458 23.4438L24.4234 14.1245C24.6259 13.3128 24.114 12.9445 23.5836 13.1853L11.9711 17.663C11.1784 17.981 11.1831 18.4232 11.8266 18.6202L14.8066 19.5504L21.7057 15.1979C22.0314 15.0003 22.3304 15.1064 22.0851 15.3242" fill="#1E1F20"/>
</svg>
